HIERARCHY
ROOT Hips
{
  OFFSET 5.84602e-005 68.8428 3.50346
  CHANNELS 6 Xposition Yposition Zposition Zrotation Xrotation Yrotation
  JOINT Spine
  {
    OFFSET 0 8.597 -4.6522
    CHANNELS 3 Zrotation Xrotation Yrotation
    JOINT Spine1
    {
      OFFSET 0 7.8454 0.4098
      CHANNELS 3 Zrotation Xrotation Yrotation
      JOINT Spine2
      {
        OFFSET 0 9.7078 -2.1609
        CHANNELS 3 Zrotation Xrotation Yrotation
        JOINT Neck
        {
          OFFSET 0 21.8761 -0.4549
          CHANNELS 3 Zrotation Xrotation Yrotation
          JOINT Head
          {
            OFFSET 0 12.3537 3.3602
            CHANNELS 3 Zrotation Xrotation Yrotation
            End Site
            {
              OFFSET 0.0001 18.9506 0.5657
            }
          }
        }
        JOINT LeftShoulder
        {
          OFFSET 2.2086 21.1115 7.2329
          CHANNELS 3 Zrotation Xrotation Yrotation
          JOINT LeftArm
          {
            OFFSET 13.1193 3.0282 -4.8998
            CHANNELS 3 Zrotation Xrotation Yrotation
            JOINT LeftForeArm
            {
              OFFSET 27.4081 -0.0973053 -0.2375
              CHANNELS 3 Zrotation Xrotation Yrotation
              JOINT LeftHand
              {
                OFFSET 22.8641 0.0662994 -0.1369
                CHANNELS 3 Zrotation Xrotation Yrotation
                JOINT LeftHandIndex1
                {
                  OFFSET 8.8614 0.775009 2.4612
                  CHANNELS 3 Zrotation Xrotation Yrotation
                  JOINT LeftHandIndex2
                  {
                    OFFSET 3.3146 -0.808304 0.5841
                    CHANNELS 3 Zrotation Xrotation Yrotation
                    JOINT LeftHandIndex3
                    {
                      OFFSET 2.2628 -0.552002 0.3989
                      CHANNELS 3 Zrotation Xrotation Yrotation
                      End Site
                      {
                        OFFSET 1.6102 -0.4807 0.2612
                      }
                    }
                  }
                }
                JOINT LeftHandMiddle1
                {
                  OFFSET 8.9937 0.895004 0.2143
                  CHANNELS 3 Zrotation Xrotation Yrotation
                  JOINT LeftHandMiddle2
                  {
                    OFFSET 4.0984 0.0113983 -0.0242
                    CHANNELS 3 Zrotation Xrotation Yrotation
                    JOINT LeftHandMiddle3
                    {
                      OFFSET 2.2716 0.00689697 -0.0138001
                      CHANNELS 3 Zrotation Xrotation Yrotation
                      End Site
                      {
                        OFFSET 2.0404 -0.1441 0.0027
                      }
                    }
                  }
                }
                JOINT LeftHandRing1
                {
                  OFFSET 8.5234 0.597198 -2.0164
                  CHANNELS 3 Zrotation Xrotation Yrotation
                  JOINT LeftHandRing2
                  {
                    OFFSET 3.7188 -0.188293 -0.2328
                    CHANNELS 3 Zrotation Xrotation Yrotation
                    JOINT LeftHandRing3
                    {
                      OFFSET 2.1191 -0.106598 -0.1332
                      CHANNELS 3 Zrotation Xrotation Yrotation
                      End Site
                      {
                        OFFSET 1.8737 -0.2304 -0.0886
                      }
                    }
                  }
                }
                JOINT LeftHandPinky1
                {
                  OFFSET 7.9094 -0.601089 -3.4825
                  CHANNELS 3 Zrotation Xrotation Yrotation
                  JOINT LeftHandPinky2
                  {
                    OFFSET 2.2874 -0.477005 -0.6314
                    CHANNELS 3 Zrotation Xrotation Yrotation
                    JOINT LeftHandPinky3
                    {
                      OFFSET 1.6774 -0.349396 -0.4633
                      CHANNELS 3 Zrotation Xrotation Yrotation
                      End Site
                      {
                        OFFSET 1.4888 -0.4091 -0.3416
                      }
                    }
                  }
                }
                JOINT LeftHandThumb1
                {
                  OFFSET 1.833 -1.3875 1.3896
                  CHANNELS 3 Zrotation Xrotation Yrotation
                  JOINT LeftHandThumb2
                  {
                    OFFSET 3.4129 -1.121 2.5732
                    CHANNELS 3 Zrotation Xrotation Yrotation
                    JOINT LeftHandThumb3
                    {
                      OFFSET 2.2474 -0.804199 1.6192
                      CHANNELS 3 Zrotation Xrotation Yrotation
                      End Site
                      {
                        OFFSET 1.6527 -0.5689 1.1317
                      }
                    }
                  }
                }
              }
            }
          }
        }
        JOINT RightShoulder
        {
          OFFSET -2.2086 21.1115 7.2329
          CHANNELS 3 Zrotation Xrotation Yrotation
          JOINT RightArm
          {
            OFFSET -13.1216 3.0287 -4.9007
            CHANNELS 3 Zrotation Xrotation Yrotation
            JOINT RightForeArm
            {
              OFFSET -27.4081 -0.0973053 -0.2375
              CHANNELS 3 Zrotation Xrotation Yrotation
              JOINT RightHand
              {
                OFFSET -22.8641 0.0664063 -0.1369
                CHANNELS 3 Zrotation Xrotation Yrotation
                JOINT RightHandIndex1
                {
                  OFFSET -8.8614 0.774994 2.4612
                  CHANNELS 3 Zrotation Xrotation Yrotation
                  JOINT RightHandIndex2
                  {
                    OFFSET -3.3146 -0.808304 0.5841
                    CHANNELS 3 Zrotation Xrotation Yrotation
                    JOINT RightHandIndex3
                    {
                      OFFSET -2.2628 -0.552002 0.3989
                      CHANNELS 3 Zrotation Xrotation Yrotation
                      End Site
                      {
                        OFFSET -1.6102 -0.4807 0.2612
                      }
                    }
                  }
                }
                JOINT RightHandMiddle1
                {
                  OFFSET -8.9937 0.894989 0.2143
                  CHANNELS 3 Zrotation Xrotation Yrotation
                  JOINT RightHandMiddle2
                  {
                    OFFSET -4.0984 0.0113983 -0.0242
                    CHANNELS 3 Zrotation Xrotation Yrotation
                    JOINT RightHandMiddle3
                    {
                      OFFSET -2.2716 0.00691223 -0.0138001
                      CHANNELS 3 Zrotation Xrotation Yrotation
                      End Site
                      {
                        OFFSET -2.0404 -0.1441 0.0027
                      }
                    }
                  }
                }
                JOINT RightHandRing1
                {
                  OFFSET -8.5234 0.597198 -2.0164
                  CHANNELS 3 Zrotation Xrotation Yrotation
                  JOINT RightHandRing2
                  {
                    OFFSET -3.7188 -0.188309 -0.2328
                    CHANNELS 3 Zrotation Xrotation Yrotation
                    JOINT RightHandRing3
                    {
                      OFFSET -2.1191 -0.106598 -0.1332
                      CHANNELS 3 Zrotation Xrotation Yrotation
                      End Site
                      {
                        OFFSET -1.8737 -0.2304 -0.0886
                      }
                    }
                  }
                }
                JOINT RightHandPinky1
                {
                  OFFSET -7.9094 -0.601105 -3.4825
                  CHANNELS 3 Zrotation Xrotation Yrotation
                  JOINT RightHandPinky2
                  {
                    OFFSET -2.2874 -0.477005 -0.6314
                    CHANNELS 3 Zrotation Xrotation Yrotation
                    JOINT RightHandPinky3
                    {
                      OFFSET -1.6774 -0.349396 -0.4633
                      CHANNELS 3 Zrotation Xrotation Yrotation
                      End Site
                      {
                        OFFSET -1.4888 -0.4091 -0.3416
                      }
                    }
                  }
                }
                JOINT RightHandThumb1
                {
                  OFFSET -1.833 -1.38751 1.3896
                  CHANNELS 3 Zrotation Xrotation Yrotation
                  JOINT RightHandThumb2
                  {
                    OFFSET -3.41299 -1.12099 2.5732
                    CHANNELS 3 Zrotation Xrotation Yrotation
                    JOINT RightHandThumb3
                    {
                      OFFSET -2.24741 -0.804108 1.6192
                      CHANNELS 3 Zrotation Xrotation Yrotation
                      End Site
                      {
                        OFFSET -1.6527 -0.5689 1.1317
                      }
                    }
                  }
                }
              }
            }
          }
        }
      }
    }
  }
  JOINT RightUpLeg
  {
    OFFSET -9.1966 3.8861 -0.7581
    CHANNELS 3 Zrotation Xrotation Yrotation
    JOINT RightLeg
    {
      OFFSET -0.7359 -41.0265 0
      CHANNELS 3 Zrotation Xrotation Yrotation
      JOINT RightFoot
      {
        OFFSET 0 -40.2855 0
        CHANNELS 3 Zrotation Xrotation Yrotation
        JOINT RightToeBase
        {
          OFFSET 0 -5.6122 11.7359
          CHANNELS 3 Zrotation Xrotation Yrotation
          End Site
          {
            OFFSET 0 0 7.8731
          }
        }
      }
    }
  }
  JOINT LeftUpLeg
  {
    OFFSET 9.1965 3.8864 -0.7581
    CHANNELS 3 Zrotation Xrotation Yrotation
    JOINT LeftLeg
    {
      OFFSET 0.7359 -41.0268 0
      CHANNELS 3 Zrotation Xrotation Yrotation
      JOINT LeftFoot
      {
        OFFSET 0 -40.2855 0
        CHANNELS 3 Zrotation Xrotation Yrotation
        JOINT LeftToeBase
        {
          OFFSET 0 -5.6122 11.7359
          CHANNELS 3 Zrotation Xrotation Yrotation
          End Site
          {
            OFFSET 0 0 7.8731
          }
        }
      }
    }
  }
}
MOTION
Frames:	5
Frame Time:	0.0333333
5.84602e-005 68.8428 3.50346 0 0 -0 0 0 -0 0 0 -0 0 0 -0 0 0 -0 0 0 -0 0 0 -0 0 0 -0 0 0 -0 0 0 -0 0 0 -0 0 0 -0 0 0 -0 0 0 -0 -0.0146107 -8.87603e-005 -2.63497e-007 2.99804e-018 -2.42657e-020 -1.42182e-022 0 0 -0 -0.0187562 -0.001176 5.858e-005 5.06224e-018 3.88251e-019 1.21329e-020 0 0 -0 -0.012269 -0.00324817 0.000675346 -1.74678e-018 3.88251e-019 -0 0 0 -0 0 0 -0 0 0 -0 0 0 -0 0 0 -0 0 0 -0 0 0 -0 0 0 -0 0 0 -0 0 0 -0 0 0 -0 0.0149955 -9.10982e-005 2.64101e-007 -9.69331e-018 1.21329e-020 -4.7394e-023 0 0 -0 0.0189956 -0.00119102 -5.96516e-005 -5.41541e-019 0 2.42657e-020 0 0 -0 0.0122698 -0.00324857 -0.000673756 -2.00796e-019 0 -1.94126e-019 0 0 -0 0 0 -0 0 0 -0 3.39842 1.33031 -0.0637918 -5.65207e-008 0.834868 -0.000436188 -3.39935 -2.16518 -0.0642563 -8.89002e-024 -1.18485e-023 -1.48106e-024 -3.39844 1.35642 0.0640283 -3.18788e-007 0.782166 -0.000588827 3.39931 -2.13858 0.0634662 1.1399e-023 0 -0 
-2.30141 6.35637 27.3447 -10.2012 36.7695 -163.268 -0.360213 16.3214 -0.0225831 -0.763219 32.6427 0.0718973 -0.763214 32.6427 0.0718965 -8.25616e-005 16.9701 4.62666e-005 -2.2397e-006 11.6648 6.95136e-007 14.946 2.84113 -23.3017 -58.4012 6.772 -33.8911 -7.22442 1.02101 0.152648 -2.32855 -12.8277 -24.4963 0 3.18055e-015 -0 1.91301e-007 -5.84793e-007 -5.84777e-007 1.91301e-007 -5.84793e-007 -5.84777e-007 0 3.18055e-015 -0 -0.014601 -8.61336e-005 -2.12879e-006 1.76182e-007 6.61003e-007 -9.56516e-007 0 3.18055e-015 -0 -0.0187704 -0.00117655 5.69259e-005 1.9128e-007 -5.84698e-007 -5.84875e-007 0 3.18055e-015 -0 -0.0122421 -0.00323878 0.000673855 1.91272e-007 -5.84734e-007 -5.84844e-007 0 3.18055e-015 -0 1.91301e-007 -5.84793e-007 -5.84777e-007 1.91301e-007 -5.84793e-007 -5.84777e-007 -13.7994 4.23863 24.2878 57.5966 6.31386 33.3701 6.77481 1.03108 -0.153146 2.7729 -14.6532 25.5122 -1.76556e-031 -6.36111e-015 -1.59028e-015 0 0 -1.59028e-015 -7.95139e-016 0 -1.59028e-015 -1.76556e-031 -6.36111e-015 -1.59028e-015 0.0149803 -9.02654e-005 1.74989e-006 7.95139e-016 -6.36111e-015 -7.95139e-016 -1.76556e-031 -6.36111e-015 -1.59028e-015 0.0189987 -0.00119354 -6.04155e-005 -2.38542e-015 -1.27222e-014 7.95139e-016 -1.76556e-031 -6.36111e-015 -1.59028e-015 0.0122577 -0.00324355 -0.000670908 -2.64834e-031 6.36111e-015 2.38542e-015 -1.76556e-031 -6.36111e-015 -1.59028e-015 0 0 -1.59028e-015 -7.95139e-016 0 -1.59028e-015 -52.4046 -32.8442 -90.4439 -7.54516 42.7824 63.1551 -8.88834 33.0625 -40.4484 1.27232e-006 -2.0016e-007 8.19279e-006 52.3722 -32.8489 90.4121 7.5068 42.7798 -63.1258 8.87334 33.0599 40.4357 6.87572e-007 -4.80161e-007 -1.76988e-007 
-0.782243 10.822 24.3803 -1.23798e-014 37.3918 -180 -0.343694 14.9901 0.00159688 -0.727452 29.9797 0.106004 -0.727452 29.9798 0.106005 -1.34264e-005 14.6321 7.38139e-006 -9.61696e-008 10.0376 -7.54913e-008 13.3538 3.808 -21.5348 -54.6352 6.47103 -31.5278 -6.72643 0.939161 0.152905 -2.83161 -10.9678 -21.4333 5.34776e-007 -1.18219e-006 -1.06218e-006 1.59028e-015 -9.54166e-015 3.18055e-015 5.34776e-007 -1.18219e-006 -1.06218e-006 5.34776e-007 -1.18219e-006 -1.06218e-006 -0.0146119 -8.76068e-005 -5.27936e-006 -3.68729e-007 -1.22062e-007 -4.52683e-007 5.34776e-007 -1.18219e-006 -1.06218e-006 -0.0187485 -0.00118129 6.11406e-005 -3.68359e-007 -1.21947e-007 -4.5269e-007 5.34776e-007 -1.18219e-006 -1.06218e-006 -0.0122249 -0.00323393 0.000671725 5.34705e-007 -1.18209e-006 -1.06232e-006 5.34776e-007 -1.18219e-006 -1.06218e-006 1.59028e-015 -9.54166e-015 3.18055e-015 5.34776e-007 -1.18219e-006 -1.06218e-006 -12.338 5.02457 22.3614 53.8644 6.02807 31.0464 6.30788 0.947513 -0.15335 3.12173 -12.5632 22.2855 1.59028e-015 3.18055e-015 -0 1.59028e-015 3.18055e-015 -0 1.01855e-006 2.43116e-006 -2.07727e-006 1.59028e-015 3.18055e-015 -0 0.015048 -8.88412e-005 -4.80129e-008 1.01846e-006 2.43089e-006 -2.07759e-006 1.59028e-015 3.18055e-015 -0 0.0189763 -0.00118956 -6.30013e-005 1.01842e-006 2.43082e-006 -2.07768e-006 1.59028e-015 3.18055e-015 -0 0.0122983 -0.00324955 -0.000676413 1.01841e-006 2.43096e-006 -2.07755e-006 1.59028e-015 3.18055e-015 -0 1.59028e-015 3.18055e-015 -0 1.01855e-006 2.43116e-006 -2.07727e-006 -46.9093 -34.9179 -85.0908 -4.36948 44.0136 57.4634 -11.117 31.0985 -35.9726 -3.79219e-007 -1.74455e-007 8.80815e-008 46.8794 -34.9187 85.0591 4.33652 44.009 -57.4377 11.1033 31.0954 35.9617 -3.79283e-007 1.74305e-007 8.80938e-008 
-0.782231 11.0658 23.7821 -1.27623e-014 39.3122 -180 -0.34402 14.7975 0.0020051 -0.727122 29.5947 0.10528 -0.727121 29.5947 0.10528 -2.76111e-007 13.5328 5.54704e-007 2.57461e-007 9.26599 4.06782e-008 12.8944 4.86683 -21.3788 -54.6352 6.47104 -31.5278 -6.72644 0.939161 0.152908 -3.81281 -9.93239 -20.1974 -1.59028e-015 -6.36111e-015 -0 8.13414e-007 8.22844e-007 -3.88144e-006 5.34252e-007 -1.18194e-006 -1.06263e-006 -1.59028e-015 -6.36111e-015 -0 -0.0145965 -9.42094e-005 -2.23786e-006 5.3421e-007 -1.18181e-006 -1.06278e-006 -1.59028e-015 -6.36111e-015 -0 -0.018726 -0.00117177 5.63761e-005 -3.64484e-007 -1.20292e-007 -4.54942e-007 -1.59028e-015 -6.36111e-015 -0 -0.0122915 -0.00325432 0.000674743 -3.65075e-007 -1.20127e-007 -4.54985e-007 -1.59028e-015 -6.36111e-015 -0 8.13414e-007 8.22844e-007 -3.88144e-006 5.34252e-007 -1.18194e-006 -1.06263e-006 -11.9652 5.98554 22.1261 53.8644 6.02805 31.0464 6.30788 0.947511 -0.153339 4.05737 -11.396 20.9858 -7.95139e-016 -3.18055e-015 -1.59028e-015 -1.59028e-015 -3.18055e-015 -1.59028e-015 -7.95139e-016 -6.36111e-015 -0 -7.95139e-016 -3.18055e-015 -1.59028e-015 0.0149494 -8.81655e-005 4.61175e-006 -3.18055e-015 -6.36111e-015 -0 -7.95139e-016 -3.18055e-015 -1.59028e-015 0.0190014 -0.00119045 -5.58687e-005 -0 -9.54166e-015 -0 -7.95139e-016 -3.18055e-015 -1.59028e-015 0.0123209 -0.00326195 -0.000676772 -7.95139e-016 0 1.59028e-015 -7.95139e-016 -3.18055e-015 -1.59028e-015 -1.59028e-015 -3.18055e-015 -1.59028e-015 -7.95139e-016 -6.36111e-015 -0 -46.8263 -33.3048 -84.4209 -4.9498 45.1319 57.8186 -11.9603 30.5194 -35.1745 -7.64233e-007 -1.98268e-006 -2.79851e-006 46.7993 -33.3057 84.392 4.91874 45.1281 -57.7946 11.9475 30.5164 35.1642 -3.79194e-007 1.74548e-007 8.81045e-008 
-0.782219 11.314 23.1918 -1.31675e-014 41.2375 -180 -0.34436 14.6049 0.00239948 -0.726833 29.2095 0.10454 -0.726833 29.2095 0.10454 -7.98101e-007 12.4295 1.77707e-006 1.15199e-007 8.49274 -1.60786e-009 12.4309 5.92534 -21.2138 -54.6352 6.47102 -31.5278 -6.72643 0.939174 0.152917 -4.81628 -8.91534 -18.9438 -5.33902e-007 1.18138e-006 1.06336e-006 -1.0678e-006 2.36276e-006 2.12673e-006 -5.33902e-007 1.18138e-006 1.06336e-006 -5.33902e-007 1.18138e-006 1.06336e-006 -0.0146132 -8.80283e-005 2.83367e-006 -5.3386e-007 1.18124e-006 1.06351e-006 -5.33902e-007 1.18138e-006 1.06336e-006 -0.0187898 -0.00117119 6.3131e-005 -5.33837e-007 1.18121e-006 1.06356e-006 -5.33902e-007 1.18138e-006 1.06336e-006 -0.0122581 -0.00324182 0.000680098 -5.3383e-007 1.18128e-006 1.0635e-006 -5.33902e-007 1.18138e-006 1.06336e-006 -1.0678e-006 2.36276e-006 2.12673e-006 -5.33902e-007 1.18138e-006 1.06336e-006 -11.5874 6.94567 21.8838 53.8644 6.02806 31.0464 6.30787 0.947529 -0.15336 5.01906 -10.2464 19.6678 5.08705e-007 1.21687e-006 -1.03703e-006 5.08705e-007 1.21687e-006 -1.03703e-006 5.08705e-007 1.21687e-006 -1.03703e-006 5.08705e-007 1.21687e-006 -1.03703e-006 0.0149938 -8.37588e-005 -1.67973e-007 5.08662e-007 1.21674e-006 -1.03719e-006 5.08705e-007 1.21687e-006 -1.03703e-006 0.0190218 -0.00119327 -6.50793e-005 5.08641e-007 1.2167e-006 -1.03724e-006 5.08705e-007 1.21687e-006 -1.03703e-006 0.0123448 -0.00326674 -0.00068142 5.08634e-007 1.21677e-006 -1.03718e-006 5.08705e-007 1.21687e-006 -1.03703e-006 5.08705e-007 1.21687e-006 -1.03703e-006 5.08705e-007 1.21687e-006 -1.03703e-006 -46.7664 -31.6878 -83.763 -5.55285 46.2461 58.1983 -12.7885 29.9309 -34.3908 -3.02116e-007 -1.53934e-006 -2.44423e-006 46.742 -31.6889 83.7369 5.52375 46.243 -58.1761 12.7766 29.928 34.3812 1.21667e-006 8.39861e-007 -2.79207e-006 
